PathFileType	4	(X/Y/Z)	C:\Users\italobelli\Desktop\GitHub\PTbot_officialCBL\Personal_Results\FLX02_noisy1.trc
DataRate	CameraRate	NumFrames	NumMarkers	Units	OrigDataRate	OrigDataStartFrame	OrigNumFrames
106.125000	106.125000	46	9	m	106.125000	107	850
Frame#	Time		gu		centelbow		EpL		centpxt8		centijc7		ij		ts		aa		ai
			X1	Y1	Z1	X2	Y2	Z2	X3	Y3	Z3	X4	Y4	Z4	X5	Y5	Z5	X6	Y6	Z6	X7	Y7	Z7	X8	Y8	Z8	X9	Y9	Z9

107	0.99882	-0.069307	-0.020861	0.16791	-0.067563	-0.26227	0.18655	-0.048755	-0.25419	0.21146	-0.046816	-0.15316	-0.008669	-0.046816	0.031938	-0.008669	0	0	0	-0.13756	0.023683	0.05629	-0.10354	0.018504	0.17049	-0.15089	-0.088966	0.060598
108	1.0082	-0.069256	-0.020867	0.16788	-0.065946	-0.26223	0.18681	-0.047186	-0.25398	0.21171	-0.046816	-0.15316	-0.008669	-0.046816	0.031938	-0.008669	0	0	0	-0.13767	0.023632	0.056362	-0.10351	0.01849	0.1705	-0.1509	-0.089011	0.060656
109	1.0177	-0.069201	-0.02085	0.16785	-0.06418	-0.26207	0.18707	-0.04548	-0.25365	0.21197	-0.046816	-0.15316	-0.008669	-0.046816	0.031938	-0.008669	0	0	0	-0.13779	0.023559	0.056438	-0.10348	0.018486	0.17051	-0.1509	-0.089077	0.060748
110	1.0271	-0.06914	-0.020813	0.16781	-0.062272	-0.2618	0.18735	-0.043642	-0.25319	0.21223	-0.046816	-0.15316	-0.008669	-0.046816	0.031938	-0.008669	0	0	0	-0.13791	0.023465	0.056517	-0.10344	0.018493	0.17052	-0.1509	-0.089165	0.060873
111	1.0365	-0.069074	-0.020754	0.16777	-0.060225	-0.26141	0.18763	-0.041677	-0.25262	0.21251	-0.046816	-0.15316	-0.008669	-0.046816	0.031938	-0.008669	0	0	0	-0.13804	0.02335	0.0566	-0.1034	0.018511	0.17054	-0.15088	-0.089272	0.061031
112	1.0459	-0.069003	-0.020676	0.16774	-0.058047	-0.26092	0.18793	-0.03959	-0.25194	0.21279	-0.046816	-0.15316	-0.008669	-0.046816	0.031938	-0.008669	0	0	0	-0.13817	0.023216	0.056687	-0.10336	0.018538	0.17055	-0.15086	-0.089399	0.06122
113	1.0554	-0.068927	-0.020577	0.1677	-0.055742	-0.26032	0.18823	-0.037387	-0.25114	0.21308	-0.046816	-0.15316	-0.008669	-0.046816	0.031938	-0.008669	0	0	0	-0.1383	0.023062	0.056777	-0.10331	0.018576	0.17056	-0.15083	-0.089545	0.06144
114	1.0648	-0.068847	-0.02046	0.16766	-0.053316	-0.25962	0.18853	-0.035074	-0.25024	0.21338	-0.046816	-0.15316	-0.008669	-0.046816	0.031938	-0.008669	0	0	0	-0.13844	0.022889	0.05687	-0.10326	0.018622	0.17057	-0.1508	-0.089709	0.06169
115	1.0742	-0.068763	-0.020323	0.16761	-0.050775	-0.25882	0.18885	-0.032655	-0.24923	0.21368	-0.046816	-0.15316	-0.008669	-0.046816	0.031938	-0.008669	0	0	0	-0.13857	0.022699	0.056966	-0.10321	0.018679	0.17059	-0.15075	-0.089889	0.061968
116	1.0836	-0.068675	-0.020169	0.16757	-0.048125	-0.25792	0.18917	-0.030135	-0.24812	0.214	-0.046816	-0.15316	-0.008669	-0.046816	0.031938	-0.008669	0	0	0	-0.13872	0.022492	0.057066	-0.10316	0.018744	0.1706	-0.15071	-0.090087	0.062274
117	1.0931	-0.068583	-0.019997	0.16753	-0.045371	-0.25693	0.1895	-0.027521	-0.24691	0.21432	-0.046816	-0.15316	-0.008669	-0.046816	0.031938	-0.008669	0	0	0	-0.13886	0.022269	0.057168	-0.10311	0.018818	0.17061	-0.15065	-0.0903	0.062606
118	1.1025	-0.068487	-0.019809	0.16748	-0.042518	-0.25585	0.18984	-0.024817	-0.24561	0.21464	-0.046816	-0.15316	-0.008669	-0.046816	0.031938	-0.008669	0	0	0	-0.13901	0.022029	0.057273	-0.10305	0.0189	0.17062	-0.15059	-0.090528	0.062964
119	1.1119	-0.068388	-0.019604	0.16743	-0.039573	-0.25469	0.19018	-0.022028	-0.24422	0.21498	-0.046816	-0.15316	-0.008669	-0.046816	0.031938	-0.008669	0	0	0	-0.13916	0.021775	0.057381	-0.10299	0.018991	0.17064	-0.15052	-0.09077	0.063347
120	1.1213	-0.068285	-0.019383	0.16738	-0.036542	-0.25343	0.19053	-0.019161	-0.24274	0.21531	-0.046816	-0.15316	-0.008669	-0.046816	0.031938	-0.008669	0	0	0	-0.13931	0.021506	0.057492	-0.10293	0.01909	0.17065	-0.15045	-0.091025	0.063754
121	1.1307	-0.068179	-0.019146	0.16734	-0.033429	-0.2521	0.19089	-0.01622	-0.24117	0.21566	-0.046816	-0.15316	-0.008669	-0.046816	0.031938	-0.008669	0	0	0	-0.13947	0.021224	0.057605	-0.10286	0.019196	0.17067	-0.15037	-0.091293	0.064183
122	1.1402	-0.06807	-0.018895	0.16729	-0.03024	-0.25069	0.19125	-0.013211	-0.23952	0.21601	-0.046816	-0.15316	-0.008669	-0.046816	0.031938	-0.008669	0	0	0	-0.13963	0.020929	0.05772	-0.1028	0.01931	0.17068	-0.15028	-0.091573	0.064634
123	1.1496	-0.067959	-0.01863	0.16723	-0.026982	-0.24921	0.19162	-0.010139	-0.2378	0.21637	-0.046816	-0.15316	-0.008669	-0.046816	0.031938	-0.008669	0	0	0	-0.13978	0.020622	0.057837	-0.10273	0.019431	0.17069	-0.15019	-0.091864	0.065106
124	1.159	-0.067844	-0.018351	0.16718	-0.023659	-0.24765	0.19199	-0.0070095	-0.236	0.21673	-0.046816	-0.15316	-0.008669	-0.046816	0.031938	-0.008669	0	0	0	-0.13994	0.020303	0.057957	-0.10266	0.019559	0.17071	-0.15009	-0.092166	0.065598
125	1.1684	-0.067728	-0.018058	0.16713	-0.020278	-0.24602	0.19237	-0.0038275	-0.23413	0.2171	-0.046816	-0.15316	-0.008669	-0.046816	0.031938	-0.008669	0	0	0	-0.1401	0.019974	0.058079	-0.10259	0.019694	0.17072	-0.14999	-0.092477	0.066108
126	1.1779	-0.067609	-0.017753	0.16707	-0.016844	-0.24433	0.19276	-0.00059851	-0.23219	0.21747	-0.046816	-0.15316	-0.008669	-0.046816	0.031938	-0.008669	0	0	0	-0.14027	0.019634	0.058202	-0.10251	0.019835	0.17074	-0.14989	-0.092797	0.066636
127	1.1873	-0.067487	-0.017436	0.16702	-0.013362	-0.24258	0.19315	0.0026721	-0.23019	0.21784	-0.046816	-0.15316	-0.008669	-0.046816	0.031938	-0.008669	0	0	0	-0.14043	0.019285	0.058328	-0.10244	0.019982	0.17075	-0.14978	-0.093125	0.067182
128	1.1967	-0.067364	-0.017108	0.16696	-0.0098392	-0.24076	0.19355	0.0059791	-0.22812	0.21822	-0.046816	-0.15316	-0.008669	-0.046816	0.031938	-0.008669	0	0	0	-0.14059	0.018928	0.058455	-0.10236	0.020135	0.17076	-0.14966	-0.09346	0.067743
129	1.2061	-0.067239	-0.016769	0.1669	-0.0062802	-0.23889	0.19395	0.009317	-0.226	0.21861	-0.046816	-0.15316	-0.008669	-0.046816	0.031938	-0.008669	0	0	0	-0.14076	0.018562	0.058583	-0.10228	0.020294	0.17078	-0.14954	-0.093802	0.068319
130	1.2155	-0.067113	-0.016419	0.16685	-0.0026909	-0.23697	0.19435	0.012681	-0.22382	0.219	-0.046816	-0.15316	-0.008669	-0.046816	0.031938	-0.008669	0	0	0	-0.14092	0.018189	0.058713	-0.1022	0.020458	0.17079	-0.14942	-0.09415	0.068909
131	1.225	-0.066985	-0.016059	0.16679	0.00092301	-0.235	0.19476	0.016065	-0.22159	0.21939	-0.046816	-0.15316	-0.008669	-0.046816	0.031938	-0.008669	0	0	0	-0.14109	0.01781	0.058845	-0.10212	0.020627	0.17081	-0.1493	-0.094503	0.069511
132	1.2344	-0.066856	-0.01569	0.16673	0.0045559	-0.23298	0.19518	0.019464	-0.21931	0.21978	-0.046816	-0.15316	-0.008669	-0.046816	0.031938	-0.008669	0	0	0	-0.14125	0.017424	0.058977	-0.10204	0.020801	0.17082	-0.14917	-0.09486	0.070126
133	1.2438	-0.066726	-0.015312	0.16667	0.0082022	-0.23091	0.19559	0.022872	-0.21699	0.22018	-0.046816	-0.15316	-0.008669	-0.046816	0.031938	-0.008669	0	0	0	-0.14141	0.017034	0.059111	-0.10196	0.02098	0.17084	-0.14903	-0.095221	0.070752
134	1.2532	-0.066595	-0.014926	0.1666	0.011856	-0.22881	0.19602	0.026285	-0.21462	0.22058	-0.046816	-0.15316	-0.008669	-0.046816	0.031938	-0.008669	0	0	0	-0.14158	0.016638	0.059245	-0.10187	0.021163	0.17085	-0.1489	-0.095585	0.071388
135	1.2627	-0.066463	-0.014532	0.16654	0.015512	-0.22666	0.19644	0.029698	-0.21222	0.22099	-0.046816	-0.15316	-0.008669	-0.046816	0.031938	-0.008669	0	0	0	-0.14174	0.01624	0.059381	-0.10179	0.02135	0.17087	-0.14876	-0.09595	0.072033
136	1.2721	-0.066331	-0.014131	0.16648	0.019164	-0.22448	0.19687	0.033103	-0.20978	0.22139	-0.046816	-0.15316	-0.008669	-0.046816	0.031938	-0.008669	0	0	0	-0.1419	0.015838	0.059517	-0.1017	0.02154	0.17088	-0.14862	-0.096317	0.072686
137	1.2815	-0.066199	-0.013724	0.16641	0.022807	-0.22227	0.1973	0.036498	-0.20731	0.2218	-0.046816	-0.15316	-0.008669	-0.046816	0.031938	-0.008669	0	0	0	-0.14207	0.015433	0.059654	-0.10161	0.021735	0.17089	-0.14847	-0.096684	0.073346
138	1.2909	-0.066066	-0.01331	0.16635	0.026435	-0.22003	0.19774	0.039875	-0.20481	0.22221	-0.046816	-0.15316	-0.008669	-0.046816	0.031938	-0.008669	0	0	0	-0.14223	0.015027	0.059791	-0.10152	0.021932	0.17091	-0.14832	-0.097051	0.074012
139	1.3004	-0.065934	-0.012891	0.16628	0.030043	-0.21777	0.19818	0.04323	-0.20228	0.22263	-0.046816	-0.15316	-0.008669	-0.046816	0.031938	-0.008669	0	0	0	-0.14238	0.01462	0.059928	-0.10143	0.022133	0.17092	-0.14818	-0.097418	0.074683
140	1.3098	-0.065801	-0.012467	0.16622	0.033624	-0.21548	0.19862	0.046557	-0.19974	0.22304	-0.046816	-0.15316	-0.008669	-0.046816	0.031938	-0.008669	0	0	0	-0.14254	0.014213	0.060066	-0.10134	0.022336	0.17094	-0.14802	-0.097782	0.075359
141	1.3192	-0.065669	-0.012038	0.16615	0.037173	-0.21318	0.19906	0.049852	-0.19717	0.22345	-0.046816	-0.15316	-0.008669	-0.046816	0.031938	-0.008669	0	0	0	-0.1427	0.013806	0.060204	-0.10125	0.022542	0.17095	-0.14787	-0.098144	0.076037
142	1.3286	-0.065538	-0.011606	0.16608	0.040685	-0.21085	0.19951	0.053108	-0.19459	0.22387	-0.046816	-0.15316	-0.008669	-0.046816	0.031938	-0.008669	0	0	0	-0.14285	0.0134	0.060342	-0.10116	0.02275	0.17096	-0.14772	-0.098502	0.076718
143	1.338	-0.065408	-0.01117	0.16601	0.044153	-0.20852	0.19995	0.056321	-0.192	0.22429	-0.046816	-0.15316	-0.008669	-0.046816	0.031938	-0.008669	0	0	0	-0.143	0.012996	0.06048	-0.10107	0.022959	0.17098	-0.14756	-0.098857	0.0774
144	1.3475	-0.065278	-0.010731	0.16594	0.047573	-0.20617	0.2004	0.059485	-0.18939	0.2247	-0.046816	-0.15316	-0.008669	-0.046816	0.031938	-0.008669	0	0	0	-0.14315	0.012594	0.060618	-0.10097	0.023171	0.17099	-0.14741	-0.099206	0.078082
145	1.3569	-0.065149	-0.010291	0.16587	0.050938	-0.20381	0.20085	0.062594	-0.18679	0.22512	-0.046816	-0.15316	-0.008669	-0.046816	0.031938	-0.008669	0	0	0	-0.1433	0.012196	0.060755	-0.10088	0.023384	0.171	-0.14725	-0.09955	0.078763
146	1.3663	-0.065022	-0.0098481	0.1658	0.054243	-0.20145	0.20131	0.065644	-0.18418	0.22554	-0.046816	-0.15316	-0.008669	-0.046816	0.031938	-0.008669	0	0	0	-0.14344	0.011802	0.060892	-0.10079	0.023598	0.17101	-0.14709	-0.099888	0.079443
147	1.3757	-0.064896	-0.0094045	0.16573	0.057482	-0.1991	0.20176	0.068629	-0.18157	0.22595	-0.046816	-0.15316	-0.008669	-0.046816	0.031938	-0.008669	0	0	0	-0.14358	0.011412	0.061029	-0.10069	0.023813	0.17103	-0.14693	-0.10022	0.08012
148	1.3852	-0.064772	-0.0089602	0.16566	0.060649	-0.19674	0.20222	0.071544	-0.17896	0.22637	-0.046816	-0.15316	-0.008669	-0.046816	0.031938	-0.008669	0	0	0	-0.14372	0.011027	0.061164	-0.1006	0.024029	0.17104	-0.14677	-0.10054	0.080793
149	1.3946	-0.06465	-0.0085158	0.16559	0.063739	-0.19438	0.20267	0.074384	-0.17637	0.22679	-0.046816	-0.15316	-0.008669	-0.046816	0.031938	-0.008669	0	0	0	-0.14385	0.010649	0.061299	-0.10051	0.024245	0.17105	-0.14661	-0.10086	0.081462
150	1.404	-0.06453	-0.008072	0.16551	0.066747	-0.19204	0.20313	0.077142	-0.17378	0.2272	-0.046816	-0.15316	-0.008669	-0.046816	0.031938	-0.008669	0	0	0	-0.14399	0.010277	0.061433	-0.10041	0.024461	0.17106	-0.14645	-0.10116	0.082125
151	1.4134	-0.064412	-0.0076292	0.16544	0.069666	-0.18971	0.20359	0.079815	-0.17121	0.22762	-0.046816	-0.15316	-0.008669	-0.046816	0.031938	-0.008669	0	0	0	-0.14411	0.0099129	0.061567	-0.10032	0.024677	0.17108	-0.14629	-0.10146	0.082781
152	1.4229	-0.064296	-0.0071879	0.16537	0.07249	-0.18739	0.20404	0.082396	-0.16865	0.22803	-0.046816	-0.15316	-0.008669	-0.046816	0.031938	-0.008669	0	0	0	-0.14424	0.0095566	0.061698	-0.10022	0.024893	0.17109	-0.14614	-0.10174	0.08343
